<mxfile host="app.diagrams.net" agent="Mozilla/5.0 (Macintosh; Intel Mac OS X 10_15_7) AppleWebKit/537.36 (KHTML, like Gecko) Chrome/136.0.0.0 Safari/537.36" version="26.3.0">
  <diagram name="Page-1" id="Lj6efxydH5azCYyiFA94">
    <mxGraphModel dx="1280" dy="857" grid="1" gridSize="10" guides="1" tooltips="1" connect="1" arrows="1" fold="1" page="1" pageScale="1" pageWidth="850" pageHeight="1100" math="0" shadow="0">
      <root>
        <mxCell id="0" />
        <mxCell id="1" parent="0" />
        <mxCell id="ZUC_NcB850URcfHk_JWK-35" style="edgeStyle=orthogonalEdgeStyle;rounded=0;orthogonalLoop=1;jettySize=auto;html=1;" edge="1" parent="1">
          <mxGeometry relative="1" as="geometry">
            <mxPoint x="421" y="280" as="sourcePoint" />
            <mxPoint x="421" y="200" as="targetPoint" />
          </mxGeometry>
        </mxCell>
        <mxCell id="ZUC_NcB850URcfHk_JWK-1" value="0" style="swimlane;fontStyle=0;childLayout=stackLayout;horizontal=1;startSize=20;fillColor=#ffffff;horizontalStack=0;resizeParent=1;resizeParentMax=0;resizeLast=0;collapsible=0;marginBottom=0;swimlaneFillColor=#ffffff;rounded=1;" vertex="1" parent="1">
          <mxGeometry x="320" y="280" width="180" height="100" as="geometry" />
        </mxCell>
        <mxCell id="ZUC_NcB850URcfHk_JWK-2" value="Atletik: A Sports Promotion Mobile Application for Taytay LGU" style="text;html=1;align=center;verticalAlign=middle;whiteSpace=wrap;rounded=0;" vertex="1" parent="ZUC_NcB850URcfHk_JWK-1">
          <mxGeometry y="20" width="180" height="80" as="geometry" />
        </mxCell>
        <mxCell id="ZUC_NcB850URcfHk_JWK-3" value="User" style="html=1;dashed=0;whiteSpace=wrap;" vertex="1" parent="1">
          <mxGeometry x="80" y="305" width="100" height="50" as="geometry" />
        </mxCell>
        <mxCell id="ZUC_NcB850URcfHk_JWK-31" style="edgeStyle=orthogonalEdgeStyle;rounded=0;orthogonalLoop=1;jettySize=auto;html=1;" edge="1" parent="1">
          <mxGeometry relative="1" as="geometry">
            <mxPoint x="401" y="200" as="sourcePoint" />
            <mxPoint x="401" y="280" as="targetPoint" />
            <Array as="points">
              <mxPoint x="401" y="280" />
            </Array>
          </mxGeometry>
        </mxCell>
        <mxCell id="ZUC_NcB850URcfHk_JWK-4" value="Sports Development Office" style="html=1;dashed=0;whiteSpace=wrap;" vertex="1" parent="1">
          <mxGeometry x="350" y="130" width="120" height="70" as="geometry" />
        </mxCell>
        <mxCell id="ZUC_NcB850URcfHk_JWK-21" style="edgeStyle=orthogonalEdgeStyle;rounded=0;orthogonalLoop=1;jettySize=auto;html=1;entryX=0.25;entryY=1;entryDx=0;entryDy=0;" edge="1" parent="1" source="ZUC_NcB850URcfHk_JWK-5" target="ZUC_NcB850URcfHk_JWK-2">
          <mxGeometry relative="1" as="geometry" />
        </mxCell>
        <mxCell id="ZUC_NcB850URcfHk_JWK-5" value="Teams" style="html=1;dashed=0;whiteSpace=wrap;" vertex="1" parent="1">
          <mxGeometry x="110" y="480" width="100" height="50" as="geometry" />
        </mxCell>
        <mxCell id="ZUC_NcB850URcfHk_JWK-20" style="edgeStyle=orthogonalEdgeStyle;rounded=0;orthogonalLoop=1;jettySize=auto;html=1;entryX=0.883;entryY=1.025;entryDx=0;entryDy=0;entryPerimeter=0;" edge="1" parent="1" source="ZUC_NcB850URcfHk_JWK-6" target="ZUC_NcB850URcfHk_JWK-2">
          <mxGeometry relative="1" as="geometry">
            <mxPoint x="480" y="400" as="targetPoint" />
            <Array as="points">
              <mxPoint x="479" y="500" />
            </Array>
          </mxGeometry>
        </mxCell>
        <mxCell id="ZUC_NcB850URcfHk_JWK-6" value="Clubs" style="html=1;dashed=0;whiteSpace=wrap;" vertex="1" parent="1">
          <mxGeometry x="610" y="490" width="100" height="50" as="geometry" />
        </mxCell>
        <mxCell id="ZUC_NcB850URcfHk_JWK-7" value="Organizers" style="html=1;dashed=0;whiteSpace=wrap;" vertex="1" parent="1">
          <mxGeometry x="680" y="305" width="100" height="50" as="geometry" />
        </mxCell>
        <mxCell id="ZUC_NcB850URcfHk_JWK-10" style="edgeStyle=orthogonalEdgeStyle;rounded=0;orthogonalLoop=1;jettySize=auto;html=1;entryX=-0.001;entryY=0.698;entryDx=0;entryDy=0;entryPerimeter=0;" edge="1" parent="1" source="ZUC_NcB850URcfHk_JWK-2" target="ZUC_NcB850URcfHk_JWK-7">
          <mxGeometry relative="1" as="geometry" />
        </mxCell>
        <mxCell id="ZUC_NcB850URcfHk_JWK-11" style="edgeStyle=orthogonalEdgeStyle;rounded=0;orthogonalLoop=1;jettySize=auto;html=1;entryX=1;entryY=0.378;entryDx=0;entryDy=0;entryPerimeter=0;" edge="1" parent="1" source="ZUC_NcB850URcfHk_JWK-7" target="ZUC_NcB850URcfHk_JWK-2">
          <mxGeometry relative="1" as="geometry" />
        </mxCell>
        <mxCell id="ZUC_NcB850URcfHk_JWK-12" value="Sporting Event Post" style="text;html=1;align=center;verticalAlign=middle;whiteSpace=wrap;rounded=0;" vertex="1" parent="1">
          <mxGeometry x="510" y="300" width="170" height="30" as="geometry" />
        </mxCell>
        <mxCell id="ZUC_NcB850URcfHk_JWK-14" value="Post Interactions&amp;nbsp;" style="text;html=1;align=center;verticalAlign=middle;whiteSpace=wrap;rounded=0;" vertex="1" parent="1">
          <mxGeometry x="510" y="340" width="170" height="30" as="geometry" />
        </mxCell>
        <mxCell id="ZUC_NcB850URcfHk_JWK-17" value="Sporting Event Post" style="text;html=1;align=center;verticalAlign=middle;whiteSpace=wrap;rounded=0;" vertex="1" parent="1">
          <mxGeometry x="480" y="470" width="130" height="30" as="geometry" />
        </mxCell>
        <mxCell id="ZUC_NcB850URcfHk_JWK-18" value="Post Interactions" style="text;html=1;align=center;verticalAlign=middle;whiteSpace=wrap;rounded=0;" vertex="1" parent="1">
          <mxGeometry x="220" y="520" width="140" height="30" as="geometry" />
        </mxCell>
        <mxCell id="ZUC_NcB850URcfHk_JWK-19" style="edgeStyle=orthogonalEdgeStyle;rounded=0;orthogonalLoop=1;jettySize=auto;html=1;entryX=0;entryY=0.5;entryDx=0;entryDy=0;" edge="1" parent="1" source="ZUC_NcB850URcfHk_JWK-2" target="ZUC_NcB850URcfHk_JWK-6">
          <mxGeometry relative="1" as="geometry">
            <Array as="points">
              <mxPoint x="460" y="515" />
            </Array>
          </mxGeometry>
        </mxCell>
        <mxCell id="ZUC_NcB850URcfHk_JWK-22" style="edgeStyle=orthogonalEdgeStyle;rounded=0;orthogonalLoop=1;jettySize=auto;html=1;entryX=0.996;entryY=0.811;entryDx=0;entryDy=0;entryPerimeter=0;" edge="1" parent="1" source="ZUC_NcB850URcfHk_JWK-2" target="ZUC_NcB850URcfHk_JWK-5">
          <mxGeometry relative="1" as="geometry">
            <mxPoint x="290" y="520" as="targetPoint" />
            <Array as="points">
              <mxPoint x="380" y="520" />
              <mxPoint x="290" y="520" />
            </Array>
          </mxGeometry>
        </mxCell>
        <mxCell id="ZUC_NcB850URcfHk_JWK-23" value="Post Interactions" style="text;html=1;align=center;verticalAlign=middle;whiteSpace=wrap;rounded=0;" vertex="1" parent="1">
          <mxGeometry x="460" y="520" width="150" height="30" as="geometry" />
        </mxCell>
        <mxCell id="ZUC_NcB850URcfHk_JWK-24" value="Sporting Event Post" style="text;html=1;align=center;verticalAlign=middle;whiteSpace=wrap;rounded=0;" vertex="1" parent="1">
          <mxGeometry x="220" y="475" width="130" height="30" as="geometry" />
        </mxCell>
        <mxCell id="ZUC_NcB850URcfHk_JWK-27" style="edgeStyle=orthogonalEdgeStyle;rounded=0;orthogonalLoop=1;jettySize=auto;html=1;entryX=1;entryY=0.75;entryDx=0;entryDy=0;" edge="1" parent="1" source="ZUC_NcB850URcfHk_JWK-2" target="ZUC_NcB850URcfHk_JWK-3">
          <mxGeometry relative="1" as="geometry">
            <Array as="points">
              <mxPoint x="250" y="343" />
            </Array>
          </mxGeometry>
        </mxCell>
        <mxCell id="ZUC_NcB850URcfHk_JWK-28" style="edgeStyle=orthogonalEdgeStyle;rounded=0;orthogonalLoop=1;jettySize=auto;html=1;entryX=0;entryY=0.25;entryDx=0;entryDy=0;exitX=0.993;exitY=0.306;exitDx=0;exitDy=0;exitPerimeter=0;" edge="1" parent="1">
          <mxGeometry relative="1" as="geometry">
            <mxPoint x="179.30000000000007" y="328.30000000000007" as="sourcePoint" />
            <mxPoint x="320" y="328.0000000000001" as="targetPoint" />
            <Array as="points">
              <mxPoint x="250" y="328" />
            </Array>
          </mxGeometry>
        </mxCell>
        <mxCell id="ZUC_NcB850URcfHk_JWK-29" value="Sporting Event Post" style="text;html=1;align=center;verticalAlign=middle;whiteSpace=wrap;rounded=0;" vertex="1" parent="1">
          <mxGeometry x="180" y="340" width="140" height="30" as="geometry" />
        </mxCell>
        <mxCell id="ZUC_NcB850URcfHk_JWK-30" value="Post Interactions&amp;nbsp;" style="text;html=1;align=center;verticalAlign=middle;whiteSpace=wrap;rounded=0;" vertex="1" parent="1">
          <mxGeometry x="180" y="300" width="140" height="30" as="geometry" />
        </mxCell>
        <mxCell id="ZUC_NcB850URcfHk_JWK-36" value="Application Requests&lt;div&gt;and Event Posts&lt;/div&gt;" style="text;html=1;align=center;verticalAlign=middle;whiteSpace=wrap;rounded=0;" vertex="1" parent="1">
          <mxGeometry x="425" y="227" width="120" height="30" as="geometry" />
        </mxCell>
        <mxCell id="ZUC_NcB850URcfHk_JWK-37" value="Notice of&amp;nbsp;&lt;div&gt;Approval/Rejection&lt;/div&gt;" style="text;html=1;align=center;verticalAlign=middle;whiteSpace=wrap;rounded=0;" vertex="1" parent="1">
          <mxGeometry x="290" y="226" width="100" height="30" as="geometry" />
        </mxCell>
      </root>
    </mxGraphModel>
  </diagram>
</mxfile>
